<svg width="396" height="223" viewBox="0 0 396 223" fill="none" xmlns="http://www.w3.org/2000/svg">
<path d="M42.48 116.92C18.12 116.92 3.6 97.96 3.6 72.04C3.6 46.24 18.12 27.28 45.12 27.28C68.64 27.28 81.72 41.2 83.76 57.64H61.68C60.12 51.76 56.64 44.92 44.76 44.92C30.6 44.92 25.68 55.96 25.68 72.04C25.68 88.24 30.6 99.28 45.6 99.28C55.56 99.28 62.52 93.28 62.76 85H46.44V69.4H85.08V115H69.6L67.44 104.08H67.2C63.12 111.88 55.08 116.92 42.48 116.92ZM116.177 46.24H96.9769V29.2H116.177V46.24ZM116.177 115H96.9769V53.56H116.177V115ZM156.383 116.92C134.903 116.92 126.503 106.6 126.023 94.6H144.023C144.623 100.72 148.703 103.72 156.023 103.72C161.663 103.72 164.183 101.92 164.183 98.44C164.183 92.92 158.063 92.32 149.183 90.28C138.383 87.76 127.223 83.44 127.223 70.96C127.223 59.44 136.823 51.64 154.103 51.64C173.783 51.64 181.463 61.6 182.063 72.4H164.063C163.463 67.48 160.823 64.84 154.463 64.84C149.183 64.84 146.903 66.76 146.903 69.76C146.903 73.84 150.503 74.08 159.743 76.24C171.863 79.12 183.863 82.72 183.863 97C183.863 109.84 174.143 116.92 156.383 116.92ZM223.309 101.8C225.109 101.8 226.189 101.68 228.469 101.32V114.88C224.389 115.84 220.909 116.2 217.069 116.2C203.629 116.2 197.869 110.08 197.869 95.08V67.96H189.349V53.56H197.869V36.4H217.069V53.56H227.749V67.96H217.069V94.6C217.069 101.2 219.589 101.8 223.309 101.8ZM252.377 136.24C248.177 136.24 244.937 135.88 240.857 135.04V120.4C242.897 120.64 244.457 120.76 246.617 120.76C250.337 120.76 255.737 120.64 257.417 114.16L232.937 53.56H252.737L267.137 94H267.377L280.577 53.56H299.537L277.097 115.12C271.937 129.16 265.937 136.24 252.377 136.24Z" fill="black"/>
<path d="M355.6 96.38L343.72 114.56L329.14 103.94L341.92 86.66L321.94 81.44L327.52 64.34L346.78 72.26V50.3H364.78V72.26L383.86 64.34L389.44 81.44L369.28 86.66L382.06 103.94L367.48 114.56L355.6 96.38Z" fill="#FFB910"/>
</svg>
